<svg width="417" height="338" viewBox="0 0 417 338" fill="none" xmlns="http://www.w3.org/2000/svg">
<path d="M294.29 283.46C291.323 283.46 288.423 282.58 285.957 280.932C283.49 279.284 281.567 276.941 280.432 274.2C279.297 271.459 278.999 268.443 279.578 265.534C280.157 262.624 281.586 259.951 283.683 257.853C285.781 255.756 288.454 254.327 291.364 253.748C294.273 253.169 297.289 253.466 300.03 254.602C302.771 255.737 305.114 257.66 306.762 260.126C308.41 262.593 309.29 265.493 309.29 268.46C309.29 272.438 307.71 276.254 304.897 279.067C302.084 281.88 298.268 283.46 294.29 283.46ZM294.29 255.46C291.719 255.46 289.205 256.222 287.068 257.651C284.93 259.079 283.264 261.11 282.28 263.485C281.296 265.861 281.038 268.474 281.54 270.996C282.041 273.518 283.28 275.834 285.098 277.652C286.916 279.47 289.232 280.709 291.754 281.21C294.276 281.712 296.89 281.454 299.265 280.47C301.64 279.486 303.671 277.82 305.099 275.682C306.528 273.545 307.29 271.031 307.29 268.46C307.285 265.016 305.913 261.714 303.475 259.281C301.038 256.847 297.734 255.48 294.29 255.48V255.46Z" fill="white"/>
<path d="M148.32 24.08C146.486 24.082 144.693 23.54 143.167 22.5226C141.641 21.5052 140.452 20.0581 139.749 18.3644C139.045 16.6707 138.86 14.8065 139.217 13.0077C139.574 11.2088 140.456 9.5561 141.752 8.25867C143.048 6.96124 144.699 6.07736 146.498 5.71887C148.296 5.36037 150.161 5.54336 151.855 6.24469C153.55 6.94602 154.998 8.13417 156.017 9.65883C157.036 11.1835 157.58 12.9761 157.58 14.81C157.577 17.266 156.601 19.6208 154.866 21.3584C153.13 23.096 150.776 24.0747 148.32 24.08ZM148.32 7.55001C146.881 7.54803 145.474 7.97298 144.277 8.77106C143.08 9.56913 142.147 10.7044 141.595 12.0333C141.044 13.3621 140.899 14.8247 141.179 16.2359C141.459 17.647 142.152 18.9433 143.169 19.9607C144.187 20.978 145.483 21.6706 146.894 21.9508C148.305 22.231 149.768 22.0862 151.097 21.5347C152.426 20.9832 153.561 20.0498 154.359 18.8528C155.157 17.6557 155.582 16.2487 155.58 14.81C155.577 12.8853 154.812 11.0403 153.451 9.67933C152.09 8.31839 150.245 7.55265 148.32 7.55001V7.55001Z" fill="#E2719A"/>
<path d="M41.7501 209.59L5.81006 213.14L37.7601 243.84L41.7501 209.59Z" fill="#D2DFD9"/>
<path d="M252.66 125.38L243.56 142.71L266.98 137.38L252.66 125.38Z" fill="#E7FEF3"/>
<path d="M65.41 145.64C101.535 145.64 130.82 116.355 130.82 80.23C130.82 44.1051 101.535 14.82 65.41 14.82C29.2851 14.82 0 44.1051 0 80.23C0 116.355 29.2851 145.64 65.41 145.64Z" fill="#FDFDFD"/>
<path d="M27 150.19H82.69L88.55 78.91C86.55 70.13 83.25 68.32 77.81 67.2L56.81 63.79C55.2174 63.4549 53.5726 63.4549 51.98 63.79L36.3 67.17C33.6719 67.7227 31.3137 69.162 29.6205 71.2466C27.9273 73.3312 27.0021 75.9344 27 78.62V150.19Z" fill="#9AE6F7"/>
<path d="M68.19 146.75C68.19 146.75 70.75 139.37 60.98 139.47C51.21 139.57 49.21 139.25 49.21 139.25L48.21 147.42L68.19 146.75Z" fill="#89DAE8"/>
<path d="M51.59 156.63L51.25 141.52C51.25 141.52 50.7 140.18 52.97 140.18C53.7674 140.164 54.5608 140.297 55.31 140.57C55.31 140.57 57.96 138.86 59.25 141.38C59.4745 141.199 59.7333 141.064 60.0109 140.985C60.2885 140.905 60.5792 140.883 60.8657 140.918C61.1522 140.954 61.4286 141.047 61.6785 141.191C61.9283 141.336 62.1465 141.529 62.32 141.76C62.32 141.76 65.32 139.96 65.84 143.45C66.36 146.94 67.93 166.27 67.93 166.27L51.59 156.63Z" fill="#9AE6F7"/>
<path d="M52.34 51.67L51.15 65.41C51.0504 66.3845 51.2532 67.366 51.7309 68.2212C52.2086 69.0764 52.938 69.7638 53.82 70.19C54.8805 70.6293 56.0171 70.8554 57.165 70.8554C58.3129 70.8554 59.4495 70.6293 60.51 70.19C61.4382 69.848 62.2391 69.2291 62.8042 68.4172C63.3694 67.6052 63.6716 66.6393 63.67 65.65L63.74 51.72L52.34 51.67Z" fill="#9AE6F7"/>
<path d="M63.7401 59.25L63.69 61.85C63.69 61.85 58.8 61.98 58.05 58.73C58.05 58.73 63.3501 58.15 63.7401 59.25Z" fill="#89DAE8"/>
<path d="M61.27 49.53C67.4445 49.53 72.45 44.5246 72.45 38.35C72.45 32.1755 67.4445 27.17 61.27 27.17C55.0954 27.17 50.09 32.1755 50.09 38.35C50.09 44.5246 55.0954 49.53 61.27 49.53Z" fill="#9AE6F7"/>
<path d="M50.09 38.35C50.09 38.35 48.09 59.35 61.93 59.35C75.77 59.35 72.45 38.35 72.45 38.35H50.09Z" fill="#9AE6F7"/>
<path d="M70.73 43.76C71.1332 43.76 71.46 43.4332 71.46 43.03C71.46 42.6268 71.1332 42.3 70.73 42.3C70.3268 42.3 70 42.6268 70 43.03C70 43.4332 70.3268 43.76 70.73 43.76Z" fill="black"/>
<path d="M61.94 43.76C62.3431 43.76 62.67 43.4332 62.67 43.03C62.67 42.6268 62.3431 42.3 61.94 42.3C61.5368 42.3 61.21 42.6268 61.21 43.03C61.21 43.4332 61.5368 43.76 61.94 43.76Z" fill="black"/>
<path d="M66.28 50.59C66.0894 50.5872 65.9017 50.5428 65.73 50.46L65.49 50.34C65.4317 50.3081 65.3878 50.2551 65.3674 50.1919C65.3469 50.1287 65.3514 50.06 65.38 50C65.41 49.9424 65.4612 49.8987 65.5228 49.8782C65.5844 49.8577 65.6515 49.8619 65.71 49.89L66 50C66.1205 50.0607 66.2557 50.0864 66.3901 50.074C66.5244 50.0616 66.6526 50.0117 66.76 49.93C66.8686 49.8522 66.9527 49.745 67.0023 49.6209C67.0519 49.4969 67.065 49.3612 67.04 49.23L66.38 45.23C66.3694 45.1637 66.3856 45.0959 66.425 45.0415C66.4644 44.9871 66.5237 44.9506 66.59 44.94C66.6563 44.9294 66.7241 44.9456 66.7785 44.9849C66.8329 45.0243 66.8694 45.0837 66.88 45.15L67.54 49.15C67.5709 49.3791 67.5366 49.6122 67.4411 49.8226C67.3456 50.0331 67.1928 50.2124 67 50.34C66.7916 50.4957 66.5401 50.583 66.28 50.59V50.59Z" fill="black"/>
<path d="M68.53 52.06L61.12 51.67C61.3429 52.6703 61.918 53.5571 62.7405 54.1684C63.563 54.7798 64.5779 55.0749 65.6 55C69.51 55 68.53 52.06 68.53 52.06Z" fill="white"/>
<path d="M50.47 124.8L47.37 88.2L33.87 73.06L27 77V130.7L28.77 141.93C29.0842 143.906 30.1436 145.686 31.7303 146.904C33.3169 148.123 35.3102 148.686 37.3 148.48L49.15 148.09L50.47 124.8Z" fill="#89DAE8"/>
<path d="M27.46 76.57L30.75 137.14C30.8129 138.255 31.1474 139.339 31.7242 140.295C32.3011 141.252 33.1029 142.054 34.06 142.63C35.8511 143.67 37.8001 144.409 39.83 144.82C46.51 146.26 47.54 141.49 47.54 141.49L46.73 77.4C46.73 77.4 45.89 70.23 39.42 67.84C35.84 66.51 32.51 68.29 30.25 70.15C29.312 70.9246 28.5703 71.9099 28.0855 73.0256C27.6006 74.1413 27.3863 75.3558 27.46 76.57V76.57Z" fill="#9AE6F7"/>
<path d="M47.37 143.37C47.3037 143.37 47.2402 143.344 47.1933 143.297C47.1464 143.25 47.12 143.186 47.12 143.12V128.23L46.8 91.12C46.8 91.0537 46.8264 90.9901 46.8733 90.9432C46.9202 90.8963 46.9837 90.87 47.05 90.87C47.1164 90.87 47.1799 90.8963 47.2268 90.9432C47.2737 90.9901 47.3 91.0537 47.3 91.12L47.62 128.23V143.12C47.62 143.186 47.5937 143.25 47.5468 143.297C47.4999 143.344 47.4364 143.37 47.37 143.37Z" fill="black"/>
<path d="M68.6399 37.28C72.8207 37.28 76.2099 33.8908 76.2099 29.71C76.2099 25.5292 72.8207 22.14 68.6399 22.14C64.4592 22.14 61.0699 25.5292 61.0699 29.71C61.0699 33.8908 64.4592 37.28 68.6399 37.28Z" fill="#9AE6F7"/>
<path d="M52.89 28.12C52.89 28.12 49.05 29.25 49.05 33C49.1888 36.5988 49.5226 40.1874 50.05 43.75L52.85 41.47C52.85 41.47 53.08 36.2 67.21 37.25L64.88 23.15C64.88 23.15 60 16.9 52.89 28.12Z" fill="#9AE6F7"/>
<path d="M52.91 47.67C55.3345 47.67 57.3 45.7045 57.3 43.28C57.3 40.8555 55.3345 38.89 52.91 38.89C50.4855 38.89 48.52 40.8555 48.52 43.28C48.52 45.7045 50.4855 47.67 52.91 47.67Z" fill="#9AE6F7"/>
<path d="M50.93 44C50.8691 43.9984 50.8108 43.9755 50.7651 43.9353C50.7194 43.8951 50.6893 43.8401 50.68 43.78C50.62 43.39 50.76 43.21 50.89 43.13C50.9715 43.0924 51.0602 43.0728 51.15 43.0728C51.2397 43.0728 51.3285 43.0924 51.41 43.13C51.3379 42.8716 51.3379 42.5984 51.41 42.34C51.5033 42.0794 51.6497 41.8411 51.84 41.64C51.8624 41.6161 51.8895 41.597 51.9196 41.584C51.9497 41.571 51.9822 41.5642 52.015 41.5642C52.0478 41.5642 52.0802 41.571 52.1103 41.584C52.1404 41.597 52.1675 41.6161 52.19 41.64C52.2358 41.6867 52.2614 41.7496 52.2614 41.815C52.2614 41.8804 52.2358 41.9433 52.19 41.99C52.0783 42.0912 51.9891 42.2147 51.9281 42.3525C51.867 42.4903 51.8355 42.6393 51.8355 42.79C51.8355 42.9407 51.867 43.0897 51.9281 43.2275C51.9891 43.3653 52.0783 43.4888 52.19 43.59C52.2143 43.611 52.2342 43.6366 52.2486 43.6653C52.263 43.694 52.2716 43.7253 52.2739 43.7573C52.2762 43.7894 52.2722 43.8215 52.2621 43.852C52.252 43.8825 52.236 43.9107 52.215 43.935C52.1939 43.9593 52.1684 43.9792 52.1396 43.9936C52.1109 44.008 52.0797 44.0166 52.0476 44.019C52.0156 44.0213 51.9834 44.0173 51.9529 44.0071C51.9224 43.997 51.8943 43.981 51.87 43.96C51.6486 43.7834 51.3933 43.654 51.12 43.58V43.58C51.1169 43.63 51.1169 43.68 51.12 43.73C51.1329 43.7819 51.1282 43.8367 51.1064 43.8857C51.0847 43.9346 51.0472 43.9748 51 44H50.93Z" fill="black"/>
<path d="M49.63 40.36C51.12 39.24 52.22 39.36 52.95 39.69C53.2594 39.8563 53.5166 40.105 53.6931 40.4086C53.8697 40.7123 53.9586 41.0589 53.95 41.41V44.25L54.82 44.84L55.48 38.58C55.5135 38.2823 55.6092 37.995 55.7608 37.7366C55.9124 37.4782 56.1165 37.2545 56.36 37.08C56.7172 36.8201 57.1274 36.6424 57.5613 36.5594C57.9952 36.4764 58.4421 36.4903 58.87 36.6C63.95 37.81 72.24 36.36 72.24 36.36C72.24 36.36 77.12 37.28 76 28" fill="#9AE6F7"/>
<path d="M54.85 45.09C54.7992 45.0886 54.7502 45.0711 54.71 45.04L53.84 44.46C53.8051 44.4375 53.7766 44.4063 53.7573 44.3695C53.738 44.3327 53.7286 44.2915 53.73 44.25V41.42C53.735 41.1108 53.6546 40.8062 53.4975 40.5397C53.3405 40.2733 53.113 40.0554 52.84 39.91C51.95 39.48 50.93 39.7 49.78 40.56C49.727 40.5998 49.6603 40.6169 49.5947 40.6075C49.529 40.5981 49.4698 40.563 49.43 40.51C49.3902 40.457 49.3731 40.3903 49.3825 40.3246C49.3919 40.259 49.427 40.1998 49.48 40.16C51.11 38.93 52.33 39.16 53.06 39.46C53.4233 39.6497 53.7258 39.9379 53.9327 40.2917C54.1397 40.6454 54.2427 41.0504 54.23 41.46V44.16L54.64 44.44L55.26 38.59C55.3002 38.2571 55.41 37.9363 55.5823 37.6486C55.7546 37.3609 55.9855 37.1126 56.26 36.92C56.6466 36.6292 57.093 36.4281 57.5669 36.3313C58.0408 36.2344 58.5304 36.2442 59 36.36C64 37.54 72.19 36.13 72.27 36.11H72.36C72.7527 36.164 73.1525 36.1272 73.5288 36.0024C73.905 35.8776 74.2475 35.6681 74.53 35.39C75.42 34.56 76.36 32.6 75.81 28.01C75.8014 27.9451 75.8186 27.8795 75.8578 27.8271C75.8971 27.7748 75.9553 27.7399 76.02 27.73C76.0531 27.7243 76.087 27.7257 76.1195 27.7339C76.152 27.7421 76.1825 27.7571 76.2089 27.7778C76.2352 27.7986 76.257 27.8246 76.2727 27.8543C76.2884 27.8839 76.2977 27.9165 76.3 27.95C76.77 31.81 76.3 34.44 74.86 35.76C74.5259 36.0808 74.1248 36.3234 73.6855 36.4704C73.2463 36.6174 72.7799 36.6651 72.32 36.61C71.61 36.74 63.83 38.02 58.89 36.84C58.4997 36.7368 58.0913 36.7228 57.6949 36.799C57.2984 36.8751 56.9242 37.0395 56.6 37.28C56.3806 37.4329 56.1959 37.6304 56.058 37.8596C55.9202 38.0888 55.8322 38.3445 55.8 38.61L55.15 44.86C55.1458 44.9039 55.1296 44.9458 55.1031 44.9811C55.0766 45.0164 55.041 45.0437 55 45.06C54.9784 45.0751 54.954 45.0856 54.9282 45.0908C54.9023 45.0959 54.8757 45.0957 54.85 45.09Z" fill="black"/>
<path d="M189.22 182.79C205.617 182.79 218.91 169.497 218.91 153.1C218.91 136.703 205.617 123.41 189.22 123.41C172.823 123.41 159.53 136.703 159.53 153.1C159.53 169.497 172.823 182.79 189.22 182.79Z" fill="#FFF0FC"/>
<path d="M171 176.81C170.948 176.812 170.897 176.796 170.855 176.765C170.814 176.734 170.784 176.69 170.77 176.64C170.759 176.609 170.755 176.576 170.757 176.544C170.759 176.511 170.768 176.48 170.783 176.451C170.798 176.422 170.819 176.396 170.844 176.375C170.869 176.354 170.899 176.339 170.93 176.33C175.176 174.715 178.886 171.944 181.64 168.33C184.84 164.24 186.1 159.98 185.09 156.66L184.52 154.77C183.402 151.124 183.747 147.186 185.483 143.79C187.219 140.394 190.21 137.808 193.82 136.58C195.958 135.843 197.89 134.606 199.456 132.973C201.021 131.34 202.174 129.358 202.82 127.19C202.839 127.126 202.882 127.073 202.94 127.041C202.998 127.009 203.066 127.001 203.13 127.02C203.194 127.039 203.247 127.082 203.279 127.14C203.311 127.198 203.319 127.266 203.3 127.33C202.629 129.576 201.433 131.63 199.811 133.322C198.188 135.014 196.186 136.296 193.97 137.06C190.476 138.239 187.581 140.735 185.9 144.016C184.219 147.298 183.885 151.106 184.97 154.63L185.54 156.51C187.92 164.34 178.47 174.39 171.05 176.8L171 176.81Z" fill="black"/>
<path d="M162 165.18C161.946 165.178 161.894 165.16 161.851 165.128C161.808 165.096 161.777 165.051 161.76 165C161.741 164.938 161.747 164.87 161.777 164.812C161.807 164.755 161.858 164.711 161.92 164.69C169.31 162.29 176.42 153.06 174.19 145.69L173.61 143.81C172.489 140.164 172.833 136.225 174.57 132.828C176.306 129.432 179.298 126.846 182.91 125.62C184.657 125.021 186.27 124.087 187.66 122.87C187.708 122.824 187.773 122.798 187.84 122.798C187.907 122.798 187.972 122.824 188.02 122.87C188.044 122.892 188.063 122.92 188.076 122.95C188.089 122.98 188.096 123.012 188.096 123.045C188.096 123.078 188.089 123.11 188.076 123.14C188.063 123.17 188.044 123.198 188.02 123.22C186.584 124.485 184.912 125.454 183.1 126.07C179.608 127.251 176.714 129.747 175.033 133.028C173.353 136.309 173.018 140.116 174.1 143.64L174.67 145.53C176.98 153.12 169.67 162.65 162.09 165.12L162 165.18Z" fill="black"/>
<path d="M191.05 183C190.997 182.999 190.946 182.982 190.904 182.949C190.863 182.916 190.833 182.871 190.82 182.82C190.809 182.789 190.805 182.756 190.807 182.724C190.809 182.691 190.818 182.66 190.833 182.631C190.848 182.602 190.869 182.576 190.894 182.555C190.919 182.534 190.949 182.519 190.98 182.51C198.67 180.01 198.92 175.23 196.82 168.33L196.25 166.44C195.126 162.794 195.47 158.853 197.206 155.457C198.943 152.06 201.937 149.474 205.55 148.25C207.687 147.51 209.617 146.273 211.182 144.64C212.747 143.007 213.901 141.026 214.55 138.86C214.569 138.796 214.612 138.743 214.67 138.711C214.728 138.679 214.796 138.671 214.86 138.69C214.924 138.709 214.977 138.752 215.009 138.81C215.041 138.868 215.049 138.936 215.03 139C214.36 141.245 213.164 143.299 211.541 144.989C209.919 146.68 207.916 147.959 205.7 148.72C202.207 149.903 199.313 152.401 197.633 155.684C195.952 158.966 195.618 162.775 196.7 166.3L197.27 168.18C200.21 177.85 196.93 181.09 191.1 182.98L191.05 183Z" fill="black"/>
<path d="M365.16 163.66H255.3C251.053 163.66 247.61 167.103 247.61 171.35V201.06C247.61 205.307 251.053 208.75 255.3 208.75H365.16C369.407 208.75 372.85 205.307 372.85 201.06V171.35C372.85 167.103 369.407 163.66 365.16 163.66Z" fill="#535353"/>
<path d="M364.16 201.71H257.83C257.459 201.713 257.092 201.642 256.749 201.502C256.405 201.362 256.093 201.155 255.83 200.894C255.567 200.633 255.358 200.322 255.216 199.98C255.073 199.638 255 199.271 255 198.9V173.5C255 172.755 255.296 172.04 255.823 171.513C256.35 170.986 257.065 170.69 257.81 170.69H364.16C364.531 170.687 364.899 170.758 365.243 170.898C365.587 171.038 365.9 171.244 366.163 171.505C366.427 171.766 366.637 172.077 366.781 172.419C366.924 172.762 366.999 173.129 367 173.5V198.9C366.999 199.271 366.924 199.638 366.781 199.981C366.637 200.323 366.427 200.634 366.163 200.895C365.9 201.156 365.587 201.362 365.243 201.502C364.899 201.642 364.531 201.713 364.16 201.71V201.71ZM257.83 171.19C257.218 171.193 256.632 171.437 256.199 171.869C255.767 172.302 255.523 172.888 255.52 173.5V198.9C255.523 199.512 255.767 200.098 256.199 200.53C256.632 200.963 257.218 201.207 257.83 201.21H364.16C364.774 201.21 365.362 200.967 365.797 200.534C366.232 200.101 366.477 199.514 366.48 198.9V173.5C366.477 172.886 366.232 172.299 365.797 171.866C365.362 171.433 364.774 171.19 364.16 171.19H257.83Z" fill="white"/>
<path d="M341.11 182.1H282.67C282.604 182.1 282.54 182.074 282.493 182.027C282.446 181.98 282.42 181.916 282.42 181.85C282.42 181.784 282.446 181.72 282.493 181.673C282.54 181.626 282.604 181.6 282.67 181.6H341.11C341.176 181.6 341.24 181.626 341.287 181.673C341.334 181.72 341.36 181.784 341.36 181.85C341.36 181.916 341.334 181.98 341.287 182.027C341.24 182.074 341.176 182.1 341.11 182.1Z" fill="white"/>
<path d="M360.2 191.65H282.67C282.605 191.648 282.542 191.62 282.496 191.574C282.45 191.528 282.423 191.466 282.42 191.4C282.42 191.334 282.446 191.27 282.493 191.223C282.54 191.176 282.604 191.15 282.67 191.15H360.2C360.266 191.15 360.33 191.176 360.377 191.223C360.424 191.27 360.45 191.334 360.45 191.4C360.448 191.466 360.42 191.528 360.374 191.574C360.328 191.62 360.266 191.648 360.2 191.65V191.65Z" fill="white"/>
<path d="M268.65 191.4C272.168 191.4 275.02 188.548 275.02 185.03C275.02 181.512 272.168 178.66 268.65 178.66C265.132 178.66 262.28 181.512 262.28 185.03C262.28 188.548 265.132 191.4 268.65 191.4Z" fill="white"/>
<path d="M120.76 145.87H50.1C47.3662 145.87 45.15 148.086 45.15 150.82V169.92C45.15 172.654 47.3662 174.87 50.1 174.87H120.76C123.494 174.87 125.71 172.654 125.71 169.92V150.82C125.71 148.086 123.494 145.87 120.76 145.87Z" fill="#ECDAE3"/>
<path d="M119.21 170.43H52.65C51.9038 170.43 51.188 170.134 50.6594 169.608C50.1309 169.081 49.8326 168.366 49.83 167.62V153.11C49.8326 152.364 50.1309 151.649 50.6594 151.122C51.188 150.596 51.9038 150.3 52.65 150.3H119.21C119.955 150.3 120.67 150.596 121.197 151.123C121.724 151.65 122.02 152.365 122.02 153.11V167.62C122.02 167.989 121.947 168.354 121.806 168.695C121.665 169.036 121.458 169.346 121.197 169.607C120.936 169.868 120.626 170.075 120.285 170.216C119.944 170.357 119.579 170.43 119.21 170.43V170.43ZM52.65 150.8C52.0364 150.8 51.4478 151.043 51.013 151.476C50.5782 151.909 50.3326 152.496 50.33 153.11V167.62C50.3326 168.234 50.5782 168.821 51.013 169.254C51.4478 169.687 52.0364 169.93 52.65 169.93H119.21C119.823 169.93 120.41 169.687 120.843 169.253C121.277 168.82 121.52 168.233 121.52 167.62V153.11C121.52 152.497 121.277 151.91 120.843 151.477C120.41 151.043 119.823 150.8 119.21 150.8H52.65Z" fill="white"/>
<path d="M105.3 157.82H67.71C67.6437 157.82 67.5801 157.794 67.5332 157.747C67.4863 157.7 67.46 157.636 67.46 157.57C67.46 157.504 67.4863 157.44 67.5332 157.393C67.5801 157.346 67.6437 157.32 67.71 157.32H105.3C105.366 157.32 105.43 157.346 105.477 157.393C105.524 157.44 105.55 157.504 105.55 157.57C105.55 157.636 105.524 157.7 105.477 157.747C105.43 157.794 105.366 157.82 105.3 157.82Z" fill="white"/>
<path d="M117.57 164H67.71C67.6437 164 67.5801 163.974 67.5332 163.927C67.4863 163.88 67.46 163.816 67.46 163.75C67.46 163.684 67.4863 163.62 67.5332 163.573C67.5801 163.526 67.6437 163.5 67.71 163.5H117.57C117.636 163.5 117.7 163.526 117.747 163.573C117.794 163.62 117.82 163.684 117.82 163.75C117.82 163.816 117.794 163.88 117.747 163.927C117.7 163.974 117.636 164 117.57 164Z" fill="white"/>
<path d="M58.69 163.71C60.9543 163.71 62.79 161.874 62.79 159.61C62.79 157.346 60.9543 155.51 58.69 155.51C56.4256 155.51 54.59 157.346 54.59 159.61C54.59 161.874 56.4256 163.71 58.69 163.71Z" fill="white"/>
<path d="M55.2599 141C55.2599 141 54.8799 148 57.0499 147.87C59.2199 147.74 59.2699 142.03 59.2699 142.03" fill="#9AE6F7"/>
<path d="M57 148.15C56.679 148.143 56.3736 148.01 56.15 147.78C54.73 146.4 55 141.22 55 141C55.0025 140.967 55.0115 140.935 55.0265 140.906C55.0414 140.876 55.062 140.85 55.0871 140.829C55.1122 140.807 55.1413 140.791 55.1727 140.781C55.2041 140.771 55.2371 140.767 55.27 140.77C55.3024 140.771 55.3342 140.779 55.3636 140.793C55.3929 140.807 55.4191 140.827 55.4406 140.851C55.4621 140.875 55.4784 140.904 55.4886 140.934C55.4989 140.965 55.5027 140.998 55.5 141.03C55.42 142.46 55.44 146.41 56.5 147.42C56.5697 147.498 56.6567 147.558 56.7539 147.596C56.8511 147.635 56.956 147.65 57.06 147.64C58.65 147.53 59.06 143.57 59.06 142.05C59.0625 141.984 59.0896 141.922 59.136 141.876C59.1823 141.83 59.2445 141.802 59.31 141.8V141.8C59.3745 141.803 59.4356 141.83 59.4803 141.877C59.5251 141.923 59.55 141.985 59.55 142.05C59.55 142.66 59.44 147.98 57.1 148.14L57 148.15Z" fill="black"/>
<path d="M51.22 141C51.22 141 50.8299 148 53.01 147.87C55.19 147.74 55.23 142.03 55.23 142.03" fill="#9AE6F7"/>
<path d="M52.94 148.15C52.7807 148.149 52.6233 148.116 52.4772 148.052C52.3311 147.988 52.1994 147.896 52.09 147.78C50.69 146.4 51 141.22 51 141C51.0013 140.968 51.0091 140.936 51.023 140.906C51.0368 140.877 51.0565 140.851 51.0808 140.829C51.1051 140.808 51.1335 140.792 51.1643 140.781C51.1951 140.771 51.2277 140.767 51.26 140.77C51.2929 140.771 51.3251 140.779 51.355 140.793C51.3848 140.807 51.4116 140.826 51.4339 140.85C51.4562 140.874 51.4735 140.903 51.4849 140.934C51.4962 140.964 51.5014 140.997 51.5 141.03C51.42 142.46 51.44 146.41 52.5 147.42C52.5677 147.498 52.6529 147.558 52.7485 147.596C52.8441 147.635 52.9475 147.65 53.05 147.64C54.65 147.53 55.05 143.57 55.05 142.05C55.05 141.984 55.0764 141.92 55.1233 141.873C55.1701 141.826 55.2337 141.8 55.3 141.8C55.3663 141.8 55.4299 141.826 55.4768 141.873C55.5237 141.92 55.55 141.984 55.55 142.05C55.55 142.66 55.44 147.98 53.1 148.14L52.94 148.15Z" fill="black"/>
<path d="M62.3601 141.71C62.3601 141.71 63.7401 149.62 61.0601 148.93C58.3801 148.24 59.4501 141.38 59.4501 141.38" fill="#9AE6F7"/>
<path d="M61.3799 149.22C61.2518 149.217 61.1244 149.201 60.9999 149.17C58.1399 148.43 59.1599 141.63 59.1999 141.34C59.2143 141.276 59.2517 141.219 59.3051 141.18C59.3585 141.141 59.4243 141.124 59.4899 141.13C59.5548 141.142 59.6122 141.179 59.6497 141.234C59.6872 141.288 59.7016 141.355 59.6899 141.42C59.4099 143.26 59.1099 148.17 61.1299 148.69C61.2486 148.731 61.3759 148.739 61.4988 148.714C61.6218 148.69 61.736 148.633 61.8299 148.55C62.8299 147.55 62.3799 143.31 62.1099 141.75C62.1042 141.717 62.1052 141.683 62.1127 141.651C62.1203 141.618 62.1342 141.588 62.1538 141.561C62.1734 141.534 62.1981 141.511 62.2267 141.494C62.2552 141.476 62.2869 141.465 62.3199 141.46C62.3516 141.453 62.3845 141.452 62.4164 141.459C62.4483 141.465 62.4784 141.478 62.5049 141.497C62.5314 141.516 62.5535 141.54 62.5699 141.568C62.5863 141.596 62.5965 141.628 62.5999 141.66C62.7099 142.27 63.5999 147.6 62.1699 148.91C61.9581 149.114 61.6739 149.225 61.3799 149.22V149.22Z" fill="black"/>
<path d="M65.52 142.33C65.52 142.33 67.21 149.14 64.58 149.12C63.2 149.12 62.58 147.42 62.58 147.42C62.6751 145.968 62.6751 144.512 62.58 143.06" fill="#9AE6F7"/>
<path d="M64.59 149.37C63.05 149.37 62.35 147.59 62.32 147.51C62.3097 147.474 62.3097 147.436 62.32 147.4C62.4147 145.965 62.4147 144.525 62.32 143.09C62.3143 143.058 62.3153 143.025 62.323 142.993C62.3306 142.961 62.3447 142.931 62.3644 142.905C62.384 142.878 62.4089 142.856 62.4374 142.84C62.4659 142.824 62.4974 142.814 62.53 142.81C62.5623 142.804 62.5954 142.805 62.6273 142.813C62.6592 142.821 62.6892 142.835 62.7154 142.854C62.7417 142.874 62.7636 142.899 62.7798 142.927C62.7961 142.956 62.8064 142.987 62.81 143.02C62.9111 144.472 62.9111 145.928 62.81 147.38C62.92 147.64 63.52 148.87 64.59 148.87C64.7324 148.876 64.8742 148.847 65.0031 148.786C65.132 148.725 65.2442 148.634 65.33 148.52C66.25 147.35 65.6 143.7 65.33 142.39C65.321 142.358 65.3186 142.325 65.323 142.293C65.3273 142.26 65.3382 142.229 65.3551 142.201C65.3719 142.173 65.3944 142.149 65.421 142.13C65.4477 142.11 65.4779 142.097 65.51 142.09C65.5415 142.081 65.5745 142.079 65.607 142.083C65.6395 142.087 65.6708 142.098 65.6989 142.115C65.727 142.132 65.7514 142.154 65.7705 142.181C65.7896 142.208 65.803 142.238 65.81 142.27C65.81 142.47 67.03 147.27 65.81 148.83C65.6701 149.017 65.4844 149.165 65.2707 149.26C65.057 149.354 64.8226 149.392 64.59 149.37V149.37Z" fill="black"/>
<path d="M68.93 79.23L84.93 137.75C85.2239 138.828 85.7778 139.818 86.5432 140.632C87.3086 141.446 88.2621 142.06 89.32 142.42C91.288 143.065 93.3493 143.379 95.42 143.35C102.26 143.35 102.26 138.47 102.26 138.47L87.94 76C87.94 76 85.62 69.16 78.78 68.18C75.01 67.65 72.13 70.08 70.3 72.38C69.5507 73.3345 69.0362 74.4517 68.7983 75.6416C68.5603 76.8316 68.6054 78.0608 68.93 79.23V79.23Z" fill="#9AE6F7"/>
<path d="M92.45 123.83L128.59 59.91C128.59 59.91 130.31 57.4 130.76 59.63C130.94 60.63 128.35 68.3 128.35 68.3C128.35 68.3 131.51 68.17 131.35 71C131.635 70.9565 131.927 70.9715 132.206 71.044C132.485 71.1165 132.747 71.245 132.975 71.4218C133.203 71.5985 133.393 71.8198 133.533 72.0722C133.673 72.3246 133.761 72.6028 133.79 72.89C133.79 72.89 137.31 72.89 135.97 76.13C134.63 79.37 101.64 140.42 101.64 140.42L92.45 123.83Z" fill="#9AE6F7"/>
<path d="M126.69 75.88C126.457 75.8805 126.228 75.8256 126.02 75.72C125.865 75.6415 125.73 75.5301 125.623 75.3936C125.516 75.2571 125.44 75.0989 125.4 74.93C124.9 73.03 127.76 68.71 127.88 68.52C127.917 68.4643 127.975 68.4256 128.041 68.4125C128.106 68.3994 128.174 68.4129 128.23 68.45C128.286 68.4871 128.324 68.5449 128.338 68.6105C128.351 68.6761 128.337 68.7443 128.3 68.8C127.5 70 125.51 73.41 125.88 74.8C125.901 74.9016 125.945 74.997 126.01 75.0786C126.074 75.1601 126.156 75.2257 126.25 75.27C127.68 75.99 130.02 72.77 130.8 71.46C130.837 71.4042 130.894 71.3648 130.959 71.3499C131.024 71.335 131.093 71.3458 131.15 71.38C131.205 71.415 131.244 71.4702 131.259 71.5337C131.274 71.5972 131.264 71.6641 131.23 71.72C131 72.19 128.67 75.88 126.69 75.88Z" fill="black"/>
<path d="M129.77 79C129.604 78.998 129.439 78.9614 129.288 78.8925C129.136 78.8237 129.001 78.724 128.89 78.6C126.8 76.51 131.13 71.17 131.31 70.95C131.329 70.9212 131.354 70.8966 131.383 70.8779C131.412 70.8593 131.445 70.8468 131.479 70.8414C131.513 70.8361 131.548 70.8378 131.582 70.8467C131.615 70.8555 131.647 70.8711 131.674 70.8927C131.701 70.9142 131.723 70.9412 131.739 70.9718C131.755 71.0024 131.765 71.036 131.768 71.0706C131.77 71.1051 131.765 71.1398 131.754 71.1724C131.742 71.205 131.724 71.2348 131.7 71.26C130.52 72.71 127.77 76.78 129.24 78.26C129.321 78.357 129.428 78.4298 129.548 78.4704C129.668 78.511 129.796 78.5177 129.92 78.49C131.3 78.19 133.05 74.27 133.61 72.78C133.622 72.7488 133.64 72.7204 133.664 72.6964C133.687 72.6724 133.715 72.6533 133.745 72.6403C133.776 72.6272 133.809 72.6205 133.843 72.6204C133.876 72.6204 133.909 72.627 133.94 72.64C133.971 72.651 133.999 72.6682 134.023 72.6905C134.047 72.7128 134.066 72.7398 134.079 72.7698C134.092 72.7998 134.099 72.8321 134.099 72.8648C134.099 72.8975 134.093 72.9299 134.08 72.96C133.87 73.53 131.92 78.57 130.02 78.96C129.939 78.9832 129.855 78.9966 129.77 79V79Z" fill="black"/>
<path d="M132.75 81C132.576 81.0007 132.403 80.9655 132.243 80.8967C132.083 80.8279 131.939 80.7269 131.82 80.6C131.143 79.8672 130.784 78.8967 130.82 77.9C130.825 77.8355 130.855 77.7754 130.904 77.7325C130.952 77.6896 131.015 77.6672 131.08 77.67C131.145 77.675 131.206 77.7046 131.251 77.7529C131.296 77.8011 131.32 77.8644 131.32 77.93C131.291 78.7743 131.58 79.5987 132.13 80.24C132.205 80.3272 132.299 80.396 132.405 80.4411C132.51 80.4862 132.625 80.5063 132.74 80.5C133.219 80.4051 133.65 80.1471 133.96 79.77C134.008 79.7264 134.07 79.7023 134.135 79.7023C134.2 79.7023 134.262 79.7264 134.31 79.77C134.334 79.7924 134.353 79.8196 134.366 79.8497C134.379 79.8798 134.386 79.9122 134.386 79.945C134.386 79.9778 134.379 80.0102 134.366 80.0403C134.353 80.0704 134.334 80.0976 134.31 80.12C133.916 80.6056 133.357 80.9294 132.74 81.03L132.75 81Z" fill="black"/>
<path d="M85.62 137.74C85.5659 137.74 85.5133 137.722 85.47 137.69C85.4267 137.658 85.3951 137.612 85.38 137.56L75.12 101C75.1069 100.935 75.118 100.868 75.1511 100.811C75.1843 100.754 75.2373 100.711 75.3 100.69C75.3636 100.674 75.4309 100.683 75.4883 100.714C75.5458 100.746 75.5893 100.798 75.61 100.86L85.86 137.48C85.8786 137.544 85.8711 137.612 85.8392 137.67C85.8073 137.728 85.7537 137.771 85.69 137.79L85.62 137.74Z" fill="black"/>
<path d="M94.89 123.59C94.8389 123.589 94.7894 123.572 94.7483 123.541C94.7072 123.511 94.6763 123.468 94.66 123.42C93.66 120.42 96.51 116.11 96.66 115.92C96.6784 115.892 96.702 115.869 96.7296 115.85C96.7571 115.832 96.788 115.819 96.8205 115.813C96.853 115.806 96.8865 115.806 96.919 115.812C96.9515 115.819 96.9824 115.832 97.01 115.85C97.0376 115.868 97.0613 115.892 97.0797 115.92C97.0981 115.947 97.111 115.978 97.1175 116.011C97.124 116.043 97.124 116.076 97.1176 116.109C97.1112 116.141 97.0984 116.172 97.08 116.2C97.08 116.2 94.23 120.48 95.16 123.26C95.179 123.322 95.1729 123.39 95.143 123.448C95.1131 123.505 95.0618 123.549 95 123.57L94.89 123.59Z" fill="black"/>
<path d="M155.35 93.93V92.66V58.17C155.35 56.1464 154.546 54.2057 153.115 52.7748C151.684 51.3439 149.744 50.54 147.72 50.54H116.84C118.731 50.7408 120.482 51.6287 121.761 53.0352C123.04 54.4417 123.759 56.2689 123.78 58.17V67.92V93.92C123.78 95.9463 124.585 97.8895 126.018 99.3223C127.45 100.755 129.394 101.56 131.42 101.56H162.19C160.307 101.362 158.565 100.471 157.301 99.0618C156.037 97.652 155.342 95.8233 155.35 93.93V93.93Z" fill="#4883F9"/>
<path d="M135.3 61.28H127.38V62.69H135.3V61.28Z" fill="white"/>
<path d="M147.15 67.43H127.38V68.53H147.15V67.43Z" fill="white"/>
<path d="M147.15 70.08H127.38V71.18H147.15V70.08Z" fill="white"/>
<path d="M150.33 72.73H127.38V73.83H150.33V72.73Z" fill="white"/>
<path d="M150.33 75.38H127.38V76.48H150.33V75.38Z" fill="white"/>
<path d="M146.09 86.79H127.38V87.89H146.09V86.79Z" fill="white"/>
<path d="M122.75 71.46C122.75 71.46 126.14 74.52 125.16 75.46C124.18 76.4 121.25 73.46 121.25 73.46" fill="#9AE6F7"/>
<path d="M124.64 76C123.923 75.9095 123.248 75.6104 122.7 75.14C122.127 74.7243 121.585 74.2664 121.08 73.77L121.43 73.42C122.57 74.56 124.43 75.92 124.98 75.37C125.02 75.3314 125.05 75.2844 125.069 75.2325C125.088 75.1806 125.095 75.125 125.09 75.07C125.09 74.14 123.27 72.31 122.58 71.69L122.92 71.32C123.19 71.56 125.55 73.74 125.59 75.06C125.595 75.1812 125.576 75.3023 125.533 75.4158C125.49 75.5293 125.424 75.6328 125.34 75.72C125.249 75.8125 125.14 75.8851 125.019 75.9333C124.899 75.9814 124.77 76.0042 124.64 76V76Z" fill="black"/>
<path d="M152.39 336.18C188.515 336.18 217.8 306.895 217.8 270.77C217.8 234.645 188.515 205.36 152.39 205.36C116.265 205.36 86.98 234.645 86.98 270.77C86.98 306.895 116.265 336.18 152.39 336.18Z" fill="#B0A9AE"/>
<path d="M142.37 262.56L128.37 331.11C128.141 332.233 127.641 333.282 126.912 334.166C126.183 335.05 125.248 335.741 124.19 336.18C122.219 336.971 120.131 337.43 118.01 337.54C111.01 337.99 110.7 333 110.7 333L122.7 260.51C122.7 260.51 124.63 253.37 131.55 251.92C135.37 251.12 138.48 253.42 140.49 255.64C141.324 256.565 141.929 257.674 142.256 258.876C142.582 260.078 142.621 261.34 142.37 262.56V262.56Z" fill="#F698F9"/>
<path d="M134.2 300.14H134.13L115.72 294.78C115.688 294.771 115.659 294.756 115.633 294.735C115.608 294.714 115.586 294.689 115.571 294.66C115.555 294.631 115.545 294.6 115.541 294.567C115.538 294.535 115.541 294.502 115.55 294.47C115.568 294.406 115.612 294.353 115.67 294.321C115.728 294.289 115.796 294.281 115.86 294.3L134 299.57L139.69 274.31C139.697 274.278 139.71 274.247 139.729 274.22C139.748 274.193 139.772 274.17 139.8 274.152C139.828 274.135 139.859 274.123 139.892 274.117C139.924 274.112 139.958 274.113 139.99 274.12C140.054 274.137 140.109 274.177 140.144 274.233C140.179 274.288 140.192 274.355 140.18 274.42L134.43 299.94C134.422 299.973 134.407 300.005 134.387 300.033C134.366 300.06 134.34 300.083 134.31 300.1C134.278 300.124 134.24 300.138 134.2 300.14V300.14Z" fill="black"/>
<path d="M114.44 312.17C114.407 312.165 114.375 312.154 114.347 312.136C114.318 312.119 114.293 312.096 114.274 312.069C114.254 312.042 114.24 312.012 114.233 311.979C114.225 311.947 114.224 311.913 114.23 311.88L120.12 274.33C120.132 274.264 120.169 274.206 120.223 274.167C120.277 274.128 120.344 274.111 120.41 274.12C120.475 274.13 120.533 274.165 120.572 274.217C120.611 274.269 120.629 274.335 120.62 274.4L114.69 312C114.671 312.051 114.637 312.095 114.592 312.125C114.547 312.156 114.494 312.171 114.44 312.17V312.17Z" fill="black"/>
<path d="M127.06 336.17L184.06 335.65L183.39 262.42C183.364 259.66 182.387 256.993 180.623 254.869C178.86 252.745 176.418 251.294 173.71 250.76L156.71 247.41C155.077 247.09 153.395 247.11 151.77 247.47L135.77 251.06C133.09 251.659 130.697 253.16 128.99 255.311C127.282 257.462 126.365 260.134 126.39 262.88L127.06 336.17Z" fill="#F698F9"/>
<path d="M149 235.06L148 249.14C147.904 250.138 148.119 251.142 148.615 252.013C149.11 252.885 149.863 253.582 150.77 254.01C151.863 254.444 153.03 254.658 154.206 254.639C155.382 254.62 156.542 254.369 157.62 253.9C158.569 253.544 159.385 252.903 159.956 252.065C160.527 251.227 160.825 250.234 160.81 249.22L160.72 235L149 235.06Z" fill="#F698F9"/>
<path d="M160.79 242.72V245.39C160.79 245.39 155.79 245.56 154.98 242.24C155 242.24 160.38 241.59 160.79 242.72Z" fill="#E475EA"/>
<path d="M183.16 273.53C183.16 273.53 189.73 282.41 183.75 286.05Z" fill="#F698F9"/>
<path d="M183.88 286.26L183.62 285.83C184.206 285.496 184.714 285.041 185.109 284.494C185.505 283.947 185.778 283.322 185.91 282.66C186.67 278.76 183 273.73 182.96 273.66L183.36 273.36C183.52 273.57 187.21 278.62 186.36 282.73C186.226 283.463 185.935 284.157 185.507 284.767C185.078 285.376 184.524 285.885 183.88 286.26Z" fill="black"/>
<path d="M167.29 216.39C167.29 216.39 184.47 238.56 169.06 242.98C152.72 247.67 159.01 231.78 159.01 231.78L157.72 214.78L167.29 216.39Z" fill="black"/>
<path d="M167.29 216.39C167.29 216.39 159.19 219.27 155.84 218.92C152.49 218.57 151.67 219.83 151.67 219.83L150.17 217.98C150.17 217.98 147.27 219.71 149.46 224.69C149.46 224.69 145.46 221.21 145.52 226.69C145.58 232.17 146.67 231.9 146.67 231.9C146.67 231.9 158.32 245.39 146.6 247.97C132.93 250.97 136.29 234.34 136.76 226.59C137.23 218.84 141.04 211.29 150.41 209.23C159.78 207.17 164.42 208.29 167.29 216.39Z" fill="black"/>
<path d="M150.72 213.33L139.79 223.85L146 248.07C146 248.07 151.9 247.07 156.42 245.87C160.94 244.67 166.42 243.62 166.42 243.62L162.9 217.25L150.72 213.33Z" fill="black"/>
<path d="M127.06 336.42C127.027 336.42 126.994 336.413 126.963 336.4C126.933 336.387 126.905 336.367 126.883 336.343C126.86 336.318 126.843 336.289 126.832 336.258C126.821 336.227 126.817 336.193 126.82 336.16L129.82 267.07C129.827 267.005 129.857 266.946 129.905 266.901C129.953 266.857 130.015 266.832 130.08 266.83C130.113 266.83 130.146 266.837 130.177 266.85C130.207 266.863 130.235 266.883 130.257 266.907C130.28 266.932 130.297 266.961 130.308 266.992C130.319 267.023 130.323 267.057 130.32 267.09L127.32 336.18C127.319 336.213 127.311 336.245 127.297 336.275C127.283 336.305 127.264 336.332 127.24 336.354C127.216 336.376 127.187 336.394 127.156 336.405C127.126 336.416 127.093 336.421 127.06 336.42V336.42Z" fill="black"/>
<path d="M175.58 271.34L237.66 273.57C239.99 273.66 243.06 273.12 244.43 271.24C245.66 269.509 246.596 267.586 247.2 265.55C249.28 258.87 243.65 256.85 243.65 256.85L173.65 250.76C173.65 250.76 170.76 251.95 167.72 258.33C166.05 261.86 167.55 265.42 169.24 267.9C169.949 268.934 170.894 269.785 171.996 270.383C173.098 270.981 174.326 271.309 175.58 271.34V271.34Z" fill="#F698F9"/>
<path d="M250.63 198.45L231.15 262.19L236.72 268.53C237.431 269.338 238.346 269.94 239.369 270.273C240.392 270.606 241.486 270.657 242.536 270.422C243.586 270.187 244.554 269.674 245.337 268.936C246.121 268.199 246.692 267.264 246.99 266.23C252.53 246.91 263.75 207.6 264.23 204.93C264.86 201.38 261.34 202.17 261.34 202.17C261.247 201.889 261.099 201.63 260.903 201.408C260.707 201.186 260.468 201.006 260.201 200.878C259.933 200.751 259.643 200.68 259.347 200.668C259.052 200.656 258.757 200.705 258.48 200.81C258.02 197.95 254.9 198.81 254.9 198.81C254.9 198.81 254.32 196.81 252.97 196.76C251.62 196.71 250.63 198.45 250.63 198.45Z" fill="#F698F9"/>
<path d="M233.48 261.42C233.437 261.419 233.394 261.407 233.357 261.384C233.32 261.361 233.29 261.329 233.27 261.29C231.6 258.5 233.52 253.58 233.6 253.37C233.627 253.309 233.676 253.26 233.737 253.234C233.798 253.208 233.868 253.207 233.93 253.23C233.961 253.241 233.989 253.258 234.013 253.281C234.037 253.303 234.056 253.33 234.069 253.36C234.082 253.39 234.089 253.422 234.089 253.455C234.089 253.488 234.083 253.52 234.07 253.55C234.07 253.55 232.16 258.46 233.7 261.04C233.733 261.097 233.742 261.165 233.725 261.229C233.708 261.292 233.667 261.347 233.61 261.38C233.571 261.404 233.526 261.418 233.48 261.42Z" fill="black"/>
<path d="M248.73 204.67L247.73 201.29C247.648 201.023 247.622 200.742 247.655 200.465C247.687 200.188 247.778 199.921 247.92 199.68C248.062 199.44 248.253 199.232 248.48 199.07C248.708 198.909 248.967 198.796 249.24 198.74L250.66 198.45L248.73 204.67Z" fill="#F698F9"/>
<path d="M249.77 201.53H249.69C249.628 201.509 249.577 201.465 249.547 201.408C249.517 201.35 249.511 201.282 249.53 201.22L250.39 198.39C250.413 198.327 250.458 198.275 250.517 198.243C250.576 198.212 250.645 198.204 250.71 198.22C250.742 198.23 250.771 198.247 250.796 198.268C250.822 198.29 250.843 198.316 250.857 198.346C250.872 198.376 250.881 198.409 250.883 198.442C250.885 198.475 250.881 198.509 250.87 198.54L250.01 201.36C249.992 201.409 249.959 201.452 249.916 201.482C249.874 201.513 249.823 201.529 249.77 201.53V201.53Z" fill="black"/>
<path d="M351.41 131.84C387.535 131.84 416.82 102.555 416.82 66.43C416.82 30.3051 387.535 1.02 351.41 1.02C315.285 1.02 286 30.3051 286 66.43C286 102.555 315.285 131.84 351.41 131.84Z" fill="#1A1A1A"/>
<path d="M329.44 147.41L325.44 277.41C325.436 277.735 325.353 278.054 325.198 278.34C325.043 278.626 324.82 278.87 324.55 279.05L312.92 286.8C312.565 287.039 312.295 287.385 312.152 287.789C312.008 288.192 311.997 288.631 312.122 289.04C312.246 289.45 312.498 289.809 312.842 290.065C313.185 290.32 313.602 290.459 314.03 290.46H341.54C342.05 290.461 342.542 290.267 342.913 289.917C343.285 289.568 343.509 289.089 343.54 288.58L357.44 147.46L329.44 147.41Z" fill="#F7B09A"/>
<path d="M386 147.41L390 277.41C390.004 277.735 390.087 278.054 390.242 278.34C390.397 278.626 390.62 278.87 390.89 279.05L402.52 286.8C402.875 287.039 403.145 287.385 403.288 287.789C403.432 288.192 403.443 288.631 403.318 289.04C403.194 289.45 402.942 289.809 402.598 290.065C402.255 290.32 401.838 290.459 401.41 290.46H373.91C373.4 290.461 372.908 290.267 372.537 289.917C372.165 289.568 371.941 289.089 371.91 288.58L358 147.41H386Z" fill="#F7B09A"/>
<path d="M386.09 154.41H329.09L323.09 81.41C325.09 72.41 328.51 70.57 334.09 69.41L355.61 65.93C357.242 65.59 358.927 65.59 360.56 65.93L376.56 69.37C379.247 69.9447 381.655 71.424 383.382 73.5608C385.11 75.6976 386.051 78.3624 386.05 81.11L386.09 154.41Z" fill="#F7B09A"/>
<path d="M360.17 53.51L361.39 67.58C361.489 68.5789 361.279 69.5841 360.789 70.4602C360.299 71.3363 359.553 72.0413 358.65 72.48C356.459 73.3802 354.001 73.3802 351.81 72.48C350.856 72.1318 350.032 71.4972 349.452 70.663C348.872 69.8289 348.564 68.8359 348.57 67.82L348.49 53.56L360.17 53.51Z" fill="#F7B09A"/>
<path d="M359.06 57.34C359.06 57.34 358 74.37 348 74.69C348 74.69 343.26 76.2 341.36 68.24L343.85 67.93L343.5 60.5L359.06 57.34Z" fill="#EAA18C"/>
<path d="M348.49 61.28L348.55 63.94C348.55 63.94 353.55 64.07 354.32 60.74C354.32 60.74 348.89 60.14 348.49 61.28Z" fill="#EAA18C"/>
<path d="M351.03 51.31C357.354 51.31 362.48 46.1836 362.48 39.86C362.48 33.5363 357.354 28.41 351.03 28.41C344.706 28.41 339.58 33.5363 339.58 39.86C339.58 46.1836 344.706 51.31 351.03 51.31Z" fill="#F7B09A"/>
<path d="M362.47 39.86C362.47 39.86 364.47 61.41 350.35 61.41C336.23 61.41 339.58 39.86 339.58 39.86H362.47Z" fill="#F7B09A"/>
<path d="M341.34 45.41C341.754 45.41 342.09 45.0742 342.09 44.66C342.09 44.2458 341.754 43.91 341.34 43.91C340.926 43.91 340.59 44.2458 340.59 44.66C340.59 45.0742 340.926 45.41 341.34 45.41Z" fill="black"/>
<path d="M350.34 45.41C350.754 45.41 351.09 45.0742 351.09 44.66C351.09 44.2458 350.754 43.91 350.34 43.91C349.926 43.91 349.59 44.2458 349.59 44.66C349.59 45.0742 349.926 45.41 350.34 45.41Z" fill="black"/>
<path d="M339.48 49.41C339.48 49.41 338.72 70.34 347.33 70.34C358.08 70.34 360.46 50.64 360.46 50.64L339.48 49.41Z" fill="#F7B09A"/>
<path d="M345.89 52.39C345.624 52.39 345.365 52.306 345.15 52.15C344.964 52.0138 344.819 51.8284 344.733 51.6147C344.646 51.4009 344.621 51.1673 344.66 50.94L345.34 46.87C345.352 46.8051 345.389 46.7477 345.444 46.7102C345.498 46.6728 345.565 46.6583 345.63 46.67C345.663 46.6747 345.694 46.6861 345.722 46.7036C345.75 46.721 345.775 46.7441 345.793 46.7713C345.812 46.7985 345.825 46.8293 345.831 46.8618C345.838 46.8943 345.837 46.9277 345.83 46.96L345.16 51C345.135 51.1363 345.149 51.277 345.2 51.4059C345.251 51.5348 345.337 51.6469 345.448 51.7292C345.56 51.8115 345.692 51.8609 345.83 51.8716C345.969 51.8824 346.107 51.8541 346.23 51.79L346.48 51.67C346.539 51.6419 346.606 51.6377 346.667 51.6582C346.729 51.6787 346.78 51.7224 346.81 51.78C346.839 51.84 346.843 51.9087 346.823 51.9719C346.802 52.0351 346.758 52.0881 346.7 52.12L346.45 52.24C346.278 52.3346 346.086 52.3861 345.89 52.39Z" fill="black"/>
<path d="M343.59 54.91L351.18 54.51C350.95 55.5332 350.36 56.4395 349.517 57.0637C348.675 57.6879 347.636 57.9883 346.59 57.91C342.59 57.91 343.59 54.91 343.59 54.91Z" fill="white"/>
<path d="M343.18 81.74L326.83 141.67C326.53 142.775 325.964 143.789 325.181 144.624C324.399 145.459 323.423 146.09 322.34 146.46C320.323 147.118 318.211 147.439 316.09 147.41C315.439 147.457 314.786 147.363 314.175 147.133C313.565 146.904 313.011 146.545 312.552 146.081C312.093 145.618 311.74 145.06 311.517 144.447C311.294 143.834 311.206 143.18 311.26 142.53L323.7 78.41C323.7 78.41 326.09 71.41 333.09 70.41C336.95 69.86 339.9 72.41 341.77 74.71C342.536 75.6913 343.062 76.8378 343.307 78.0582C343.551 79.2786 343.508 80.5393 343.18 81.74V81.74Z" fill="#F7B09A"/>
<path d="M316.57 194.14C317.65 190.7 328.81 134.42 328.81 134.42L311.51 141.16L302.27 193.34" fill="#F7B09A"/>
<path d="M327.89 141.36H327.84C327.808 141.353 327.777 141.34 327.75 141.321C327.723 141.302 327.7 141.277 327.682 141.25C327.665 141.222 327.653 141.191 327.647 141.158C327.642 141.126 327.643 141.092 327.65 141.06L336.34 103.86C336.355 103.795 336.394 103.738 336.451 103.703C336.507 103.667 336.575 103.655 336.64 103.67C336.705 103.685 336.761 103.724 336.797 103.781C336.833 103.837 336.845 103.905 336.83 103.97L328.14 141.17C328.125 141.225 328.092 141.273 328.047 141.307C328.002 141.341 327.947 141.36 327.89 141.36V141.36Z" fill="black"/>
<path d="M316.57 194.14C316.57 194.14 320.78 199.65 319.42 201.14C318.06 202.63 313.83 196.86 313.83 196.86L312.32 202.73C311.995 204.507 311.901 206.319 312.04 208.12C312.35 210.32 312.74 214.01 310.65 215C308.56 215.99 306.42 214.9 305.37 212.67C304.32 210.44 300.66 208.67 301.32 199.32L302.27 193.37" fill="#F7B09A"/>
<path d="M311.15 214.14C311.111 214.14 311.073 214.131 311.038 214.114C311.004 214.096 310.973 214.071 310.95 214.04C310.84 213.89 308.31 210.24 309.26 203.2C309.274 203.136 309.312 203.079 309.365 203.04C309.419 203.001 309.484 202.984 309.55 202.99C309.615 203 309.673 203.035 309.712 203.087C309.751 203.139 309.769 203.205 309.76 203.27C308.83 210.12 311.33 213.71 311.36 213.75C311.379 213.776 311.392 213.806 311.4 213.837C311.407 213.868 311.408 213.901 311.402 213.933C311.397 213.964 311.385 213.995 311.367 214.022C311.35 214.049 311.327 214.072 311.3 214.09C311.258 214.126 311.205 214.144 311.15 214.14V214.14Z" fill="black"/>
<path d="M309.41 215.56C309.368 215.56 309.326 215.549 309.289 215.528C309.252 215.507 309.221 215.477 309.2 215.44C309.2 215.38 305.74 209.51 306.2 203.31C306.2 203.276 306.207 203.243 306.22 203.212C306.234 203.181 306.255 203.153 306.281 203.131C306.307 203.109 306.337 203.093 306.37 203.085C306.402 203.076 306.437 203.074 306.47 203.08C306.535 203.085 306.595 203.115 306.638 203.164C306.68 203.212 306.703 203.275 306.7 203.34C306.26 209.34 309.6 215.13 309.63 215.19C309.663 215.247 309.672 215.315 309.655 215.379C309.638 215.442 309.597 215.497 309.54 215.53C309.5 215.55 309.455 215.561 309.41 215.56Z" fill="black"/>
<path d="M307.43 215.16C307.385 215.161 307.34 215.15 307.301 215.127C307.262 215.104 307.231 215.07 307.21 215.03C307.06 214.77 303.51 208.51 303.61 203.24C303.61 203.174 303.636 203.11 303.683 203.063C303.73 203.016 303.794 202.99 303.86 202.99C303.926 202.99 303.99 203.016 304.037 203.063C304.084 203.11 304.11 203.174 304.11 203.24C304.02 208.37 307.61 214.71 307.65 214.78C307.679 214.839 307.685 214.907 307.667 214.97C307.648 215.033 307.607 215.086 307.55 215.12C307.514 215.143 307.473 215.156 307.43 215.16V215.16Z" fill="black"/>
<path d="M319.13 190.61L303.08 188.61C303.014 188.602 302.953 188.568 302.912 188.516C302.871 188.463 302.852 188.396 302.86 188.33C302.868 188.264 302.902 188.203 302.954 188.162C303.007 188.121 303.074 188.102 303.14 188.11L319.19 190.11C319.223 190.114 319.255 190.124 319.284 190.14C319.313 190.156 319.338 190.178 319.359 190.204C319.379 190.23 319.394 190.26 319.403 190.292C319.412 190.324 319.414 190.357 319.41 190.39C319.4 190.455 319.366 190.515 319.314 190.555C319.262 190.596 319.196 190.616 319.13 190.61V190.61Z" fill="black"/>
<path d="M340.23 37.91C340.23 37.91 329.03 37.01 332.73 27.18C336.43 17.35 353.2 26.37 353.2 26.37C353.2 26.37 358.3 24.2 361.29 27.89C364.28 31.58 362.94 44.41 362.94 44.41L357.43 37.55C357.43 37.55 342.9 38.8 340.23 37.91Z" fill="#F7B09A"/>
<path d="M359.59 49.41C362.075 49.41 364.09 47.3953 364.09 44.91C364.09 42.4247 362.075 40.41 359.59 40.41C357.105 40.41 355.09 42.4247 355.09 44.91C355.09 47.3953 357.105 49.41 359.59 49.41Z" fill="#F7B09A"/>
<path d="M361.62 45.67C361.555 45.6601 361.497 45.6252 361.458 45.5729C361.419 45.5205 361.401 45.4549 361.41 45.39C361.425 45.331 361.425 45.269 361.41 45.21C361.136 45.3037 360.879 45.4422 360.65 45.62C360.604 45.6629 360.543 45.6867 360.48 45.6867C360.417 45.6867 360.356 45.6629 360.31 45.62C360.269 45.5728 360.247 45.5124 360.247 45.45C360.247 45.3876 360.269 45.3272 360.31 45.28C360.426 45.1759 360.518 45.0487 360.581 44.9065C360.645 44.7644 360.677 44.6106 360.677 44.455C360.677 44.2994 360.645 44.1456 360.581 44.0034C360.518 43.8613 360.426 43.7341 360.31 43.63C360.266 43.5821 360.242 43.5197 360.242 43.455C360.242 43.3903 360.266 43.3279 360.31 43.28C360.333 43.2558 360.361 43.2366 360.392 43.2234C360.423 43.2103 360.456 43.2035 360.49 43.2035C360.524 43.2035 360.557 43.2103 360.588 43.2234C360.619 43.2366 360.647 43.2558 360.67 43.28C360.867 43.4778 361.013 43.7201 361.097 43.9864C361.18 44.2527 361.199 44.5352 361.15 44.81C361.233 44.7728 361.324 44.7535 361.415 44.7535C361.506 44.7535 361.597 44.7728 361.68 44.81C361.81 44.89 361.96 45.07 361.89 45.47C361.878 45.5309 361.844 45.5851 361.794 45.6221C361.744 45.6591 361.682 45.6762 361.62 45.67V45.67Z" fill="black"/>
<path d="M357.6 46.76H357.5C357.46 46.7419 357.426 46.7142 357.399 46.6792C357.373 46.6443 357.356 46.6033 357.35 46.56L356.68 40.15C356.645 39.8801 356.555 39.6203 356.415 39.3865C356.276 39.1526 356.09 38.9496 355.87 38.79C355.535 38.5433 355.15 38.3748 354.741 38.2969C354.333 38.219 353.912 38.2337 353.51 38.34C348.32 39.58 340.07 38.16 339.72 38.1C339.655 38.0878 339.598 38.0505 339.56 37.9962C339.523 37.9419 339.508 37.8749 339.52 37.81C339.524 37.7774 339.534 37.7459 339.55 37.7174C339.566 37.6889 339.588 37.6641 339.614 37.6444C339.641 37.6247 339.671 37.6106 339.703 37.603C339.735 37.5953 339.768 37.5943 339.8 37.6C339.89 37.6 348.3 39.07 353.4 37.85C353.873 37.7282 354.367 37.7134 354.846 37.8069C355.325 37.9003 355.778 38.0995 356.17 38.39C356.448 38.5884 356.681 38.8433 356.853 39.138C357.025 39.4327 357.133 39.7606 357.17 40.1L357.8 46.1L358.23 45.81V43C358.225 42.5881 358.334 42.1829 358.546 41.8297C358.758 41.4765 359.064 41.1892 359.43 41C360.18 40.64 361.43 40.46 363.08 41.71C363.107 41.7288 363.131 41.7531 363.148 41.7813C363.166 41.8095 363.177 41.8411 363.182 41.874C363.187 41.9069 363.184 41.9404 363.175 41.9725C363.166 42.0045 363.151 42.0343 363.13 42.06C363.083 42.1058 363.02 42.1315 362.955 42.1315C362.89 42.1315 362.827 42.1058 362.78 42.06C361.61 41.18 360.55 40.96 359.65 41.4C359.368 41.548 359.133 41.7712 358.971 42.0448C358.808 42.3185 358.725 42.6318 358.73 42.95V45.86C358.731 45.9 358.721 45.9395 358.702 45.9746C358.682 46.0097 358.654 46.0391 358.62 46.06L357.73 46.66C357.7 46.7082 357.654 46.7438 357.6 46.76V46.76Z" fill="black"/>
<path d="M391.75 268.15H369.9C369.834 268.15 369.77 268.124 369.723 268.077C369.676 268.03 369.65 267.966 369.65 267.9C369.65 267.834 369.676 267.77 369.723 267.723C369.77 267.676 369.834 267.65 369.9 267.65H391.75C391.816 267.65 391.88 267.676 391.927 267.723C391.974 267.77 392 267.834 392 267.9C392 267.966 391.974 268.03 391.927 268.077C391.88 268.124 391.816 268.15 391.75 268.15Z" fill="black"/>
<path d="M345.66 268.15H323.81C323.744 268.15 323.68 268.124 323.633 268.077C323.586 268.03 323.56 267.966 323.56 267.9C323.56 267.834 323.586 267.77 323.633 267.723C323.68 267.676 323.744 267.65 323.81 267.65H345.66C345.726 267.65 345.79 267.676 345.837 267.723C345.884 267.77 345.91 267.834 345.91 267.9C345.91 267.966 345.884 268.03 345.837 268.077C345.79 268.124 345.726 268.15 345.66 268.15Z" fill="black"/>
<path d="M339.55 53.9C339.486 53.8977 339.425 53.872 339.379 53.8277C339.333 53.7834 339.305 53.7237 339.3 53.66C339.299 53.6272 339.304 53.5944 339.315 53.5635C339.327 53.5327 339.344 53.5044 339.366 53.4802C339.388 53.4561 339.415 53.4366 339.445 53.4228C339.475 53.409 339.507 53.4013 339.54 53.4L358.07 52.4C358.133 52.3998 358.194 52.4234 358.24 52.466C358.286 52.5086 358.315 52.5672 358.32 52.63C358.323 52.6958 358.301 52.7602 358.258 52.8103C358.216 52.8604 358.155 52.8925 358.09 52.9L339.56 53.9H339.55Z" fill="black"/>
<path d="M384.52 76.32L409.88 133C410.349 134.046 410.555 135.191 410.478 136.335C410.401 137.479 410.045 138.586 409.44 139.56C408.297 141.348 406.868 142.935 405.21 144.26C399.8 148.7 396.63 144.83 396.63 144.83L367.35 86.1C367.35 86.1 364.76 79.18 369.54 73.97C372.18 71.09 376.04 71.15 378.97 71.78C380.186 72.0484 381.323 72.5991 382.287 73.3878C383.251 74.1765 384.016 75.181 384.52 76.32V76.32Z" fill="#F7B09A"/>
<path d="M351.92 161.67L351.06 167.67C350.679 169.438 350.071 171.149 349.25 172.76C348.13 174.67 346.34 177.92 347.9 179.64C349.46 181.36 351.84 181.17 353.66 179.52C355.48 177.87 359.57 177.58 362.53 168.75L363.94 162.89L404.36 146C406.021 145.303 407.463 144.17 408.534 142.721C409.604 141.272 410.264 139.561 410.442 137.768C410.62 135.975 410.311 134.168 409.547 132.537C408.782 130.905 407.592 129.51 406.1 128.5L405.7 128.22C405.7 128.22 400.44 123.61 392.23 129.22C384.02 134.83 350.42 158.22 350.42 158.22C350.42 158.22 344.42 161.69 345.12 163.56C345.82 165.43 351.92 161.67 351.92 161.67Z" fill="#F7B09A"/>
<path d="M347.85 178.7C347.796 178.701 347.742 178.684 347.699 178.652C347.655 178.62 347.622 178.575 347.606 178.523C347.591 178.471 347.592 178.415 347.611 178.364C347.63 178.313 347.664 178.269 347.71 178.24C347.71 178.24 351.45 175.84 353.21 169.18C353.229 169.118 353.27 169.065 353.325 169.032C353.381 168.999 353.447 168.987 353.51 169C353.542 169.008 353.573 169.023 353.6 169.043C353.626 169.063 353.649 169.088 353.665 169.117C353.682 169.146 353.693 169.178 353.697 169.211C353.702 169.244 353.699 169.278 353.69 169.31C351.87 176.18 348.14 178.57 347.98 178.67C347.939 178.689 347.895 178.7 347.85 178.7Z" fill="black"/>
<path d="M348.91 180.68C348.872 180.681 348.834 180.674 348.8 180.658C348.765 180.642 348.734 180.619 348.71 180.59C348.67 180.535 348.652 180.467 348.662 180.4C348.671 180.333 348.706 180.272 348.76 180.23C348.81 180.23 354.1 176.17 356.01 170.42C356.02 170.388 356.036 170.359 356.058 170.334C356.08 170.309 356.107 170.289 356.137 170.275C356.167 170.261 356.2 170.253 356.233 170.252C356.266 170.251 356.299 170.257 356.33 170.27C356.361 170.279 356.39 170.294 356.415 170.315C356.44 170.336 356.461 170.362 356.475 170.391C356.489 170.421 356.497 170.453 356.498 170.485C356.499 170.518 356.493 170.55 356.48 170.58C354.48 176.48 349.11 180.58 349.06 180.58C349.043 180.606 349.021 180.628 348.995 180.645C348.969 180.662 348.94 180.674 348.91 180.68V180.68Z" fill="black"/>
<path d="M350.89 181.07C350.854 181.071 350.817 181.064 350.784 181.048C350.751 181.032 350.722 181.009 350.7 180.98C350.676 180.958 350.657 180.93 350.644 180.9C350.631 180.87 350.624 180.838 350.624 180.805C350.624 180.772 350.631 180.74 350.644 180.71C350.657 180.68 350.676 180.652 350.7 180.63C350.76 180.63 356.51 176.1 358.39 171.33C358.402 171.299 358.42 171.27 358.444 171.246C358.467 171.222 358.495 171.203 358.525 171.19C358.556 171.177 358.589 171.17 358.623 171.17C358.656 171.17 358.689 171.177 358.72 171.19C358.781 171.215 358.829 171.262 358.855 171.322C358.881 171.381 358.883 171.449 358.86 171.51C356.92 176.42 351.25 180.84 351.01 181.02C350.975 181.047 350.934 181.065 350.89 181.07V181.07Z" fill="black"/>
<path d="M366.83 163.13C366.771 163.127 366.715 163.105 366.67 163.067C366.625 163.029 366.593 162.977 366.58 162.92L364 148.78C363.991 148.715 364.006 148.65 364.043 148.596C364.08 148.542 364.136 148.504 364.2 148.49C364.232 148.483 364.266 148.482 364.298 148.489C364.331 148.495 364.361 148.508 364.389 148.527C364.416 148.545 364.439 148.57 364.456 148.598C364.474 148.626 364.485 148.657 364.49 148.69L367.1 162.83C367.106 162.863 367.105 162.897 367.097 162.929C367.09 162.962 367.076 162.992 367.056 163.019C367.037 163.046 367.012 163.069 366.983 163.086C366.955 163.104 366.923 163.115 366.89 163.12L366.83 163.13Z" fill="black"/>
<path d="M393.41 130.94C393.37 130.949 393.329 130.949 393.29 130.94C390.99 129.72 390.21 130.81 390.17 130.86C390.148 130.897 390.115 130.927 390.076 130.945C390.036 130.963 389.992 130.968 389.95 130.96C389.906 130.961 389.863 130.949 389.826 130.926C389.789 130.903 389.759 130.869 389.74 130.83L373.26 98.05C373.229 97.9903 373.224 97.921 373.245 97.8572C373.265 97.7935 373.31 97.7405 373.37 97.71C373.43 97.6795 373.499 97.674 373.563 97.6946C373.627 97.7152 373.679 97.7603 373.71 97.82L390 130.26C390.46 129.89 391.53 129.42 393.5 130.47C393.529 130.485 393.554 130.505 393.575 130.53C393.595 130.554 393.611 130.583 393.62 130.614C393.629 130.645 393.632 130.677 393.629 130.709C393.625 130.741 393.616 130.772 393.6 130.8C393.583 130.838 393.557 130.87 393.523 130.895C393.49 130.92 393.451 130.935 393.41 130.94V130.94Z" fill="black"/>
<path d="M234.31 52.38L240.51 39.29C240.809 38.6594 241.28 38.1265 241.87 37.753C242.459 37.3796 243.142 37.1809 243.84 37.18H290.61C291.586 37.18 292.522 36.7923 293.212 36.1022C293.902 35.412 294.29 34.476 294.29 33.5V3.68C294.29 2.704 293.902 1.76798 293.212 1.07785C292.522 0.387713 291.586 0 290.61 0L238 0C237.023 -3.58735e-06 236.086 0.38739 235.394 1.07724C234.703 1.76709 234.313 2.70308 234.31 3.68V52.38Z" fill="#9CB7AB"/>
</svg>
